<svg width="77" height="82" viewBox="0 0 77 82" fill="none" xmlns="http://www.w3.org/2000/svg">
<path d="M40.2998 81.2277C29.8016 81.2277 19.7334 76.9994 12.3101 69.473C4.88682 61.9466 0.716442 51.7385 0.716442 41.0946C0.716442 30.4506 4.88682 20.2426 12.3101 12.7162C19.7334 5.18978 29.8016 0.961487 40.2998 0.961487C40.8523 0.961487 41.3822 1.18403 41.7729 1.58016C42.1636 1.97628 42.3831 2.51355 42.3831 3.07376C42.3831 3.63396 42.1636 4.17123 41.7729 4.56735C41.3822 4.96348 40.8523 5.18602 40.2998 5.18602C34.4567 5.1509 28.6958 6.58209 23.5306 9.35204C18.3654 12.122 13.9565 16.1446 10.6967 21.0614C7.43689 25.9781 5.42758 31.6362 4.84786 37.5313C4.26813 43.4265 5.136 49.3754 7.37411 54.848C9.61222 60.3205 13.151 65.1466 17.6751 68.896C22.1992 72.6454 27.5679 75.2017 33.3028 76.337C39.0377 77.4723 44.9606 77.1513 50.5434 75.4027C56.1263 73.6541 61.1957 70.5321 65.2998 66.3151C65.485 66.0927 65.7136 65.9116 65.9712 65.783C66.2287 65.6545 66.5097 65.5813 66.7965 65.568C67.0832 65.5548 67.3696 65.6018 67.6376 65.706C67.9056 65.8103 68.1495 65.9696 68.3539 66.174C68.5584 66.3783 68.7189 66.6233 68.8256 66.8935C68.9322 67.1638 68.9826 67.4534 68.9736 67.7443C68.9646 68.0353 68.8964 68.3211 68.7733 68.5841C68.6502 68.847 68.4748 69.0813 68.2581 69.2722C64.6151 73.0484 60.2663 76.0505 55.4659 78.1033C50.6654 80.156 45.5097 81.2182 40.2998 81.2277V81.2277Z" fill="#FF4343"/>
<path d="M39.0497 54.6131C38.7795 54.6219 38.5105 54.5739 38.2595 54.4721C38.0085 54.3703 37.781 54.2169 37.5913 54.0216L20.9247 37.1235C20.7294 36.9271 20.5744 36.6935 20.4687 36.4361C20.3629 36.1787 20.3084 35.9026 20.3084 35.6238C20.3084 35.3449 20.3629 35.0688 20.4687 34.8114C20.5744 34.554 20.7294 34.3204 20.9247 34.1241C21.3211 33.7343 21.8516 33.5164 22.4038 33.5164C22.956 33.5164 23.4866 33.7343 23.883 34.1241L39.0497 49.5436L73.008 15.1136C73.4003 14.7159 73.9324 14.4924 74.4872 14.4924C75.042 14.4924 75.574 14.7159 75.9663 15.1136C76.3586 15.5114 76.579 16.0508 76.579 16.6133C76.579 17.1758 76.3586 17.7153 75.9663 18.1131L40.5497 54.0216C40.3508 54.2161 40.1158 54.3686 39.8583 54.4701C39.6008 54.5717 39.3259 54.6203 39.0497 54.6131V54.6131Z" fill="#FF4343"/>
</svg>
